<?xml version="1.0" encoding="UTF-8"?>
<svg xmlns="http://www.w3.org/2000/svg" version="1.1" viewBox="0 0 2000 2000">
  <defs>
    <style>
      .cls-1 {
        fill: #00dba4;
      }
    </style>
  </defs>
  <!-- Generator: Adobe Illustrator 28.6.0, SVG Export Plug-In . SVG Version: 1.2.0 Build 709)  -->
  <g>
    <g id="Layer_1">
      <path class="cls-1" d="M1317.02,1174.26l-160.27,191.02-111.97,133.42v-544.14h134.81c-12.53,50.41-45.79,92.75-90.25,117.32v97.21c107.4-37.04,184.83-139.21,184.83-259.09v-44.57h-318.53v224c-80.5-20-140.32-92.86-140.32-179.43,0-101.94,82.95-184.83,184.89-184.83v-89.13c-151.08,0-274.02,122.89-274.02,273.96,0,135.87,99.49,249.01,229.46,270.34v319.64l-273.3-325.72c-137.71-162.72-126.57-404.1,25.46-553.5,161.83-160.99,423.32-160.99,585.14,0,151.63,149.8,162.11,391.12,24.07,553.5Z"/>
    </g>
  </g>
</svg>