<?xml version="1.0" encoding="UTF-8"?>
<svg xmlns="http://www.w3.org/2000/svg" version="1.1" viewBox="0 0 1322 586">
  <defs>
    <style>
      .cls-1 {
        fill: #267373;
      }

      .cls-2 {
        fill: #00dba4;
      }
    </style>
  </defs>
  <!-- Generator: Adobe Illustrator 28.6.0, SVG Export Plug-In . SVG Version: 1.2.0 Build 709)  -->
  <g>
    <g id="Layer_1">
      <g>
        <path class="cls-2" d="M388.3,373.41l-73.95,88.14-51.66,61.56v-251.07h62.2c-5.78,23.26-21.13,42.8-41.64,54.13v44.85c49.56-17.09,85.28-64.23,85.28-119.55v-20.56h-146.97v103.35c-37.14-9.23-64.75-42.85-64.75-82.79,0-47.04,38.27-85.28,85.31-85.28v-41.13c-69.71,0-126.44,56.7-126.44,126.41,0,62.69,45.91,114.9,105.87,124.74v147.49l-126.1-150.29c-63.54-75.08-58.4-186.45,11.75-255.39,74.67-74.28,195.32-74.28,269.99,0,69.97,69.12,74.8,180.47,11.1,255.39Z"/>
        <g>
          <path class="cls-1" d="M614.34,242.05h97.25v11.89c0,18.37-4.05,34.62-12.16,48.76-8.1,14.14-19.59,25.08-34.44,32.82-14.86,7.75-31.92,11.62-51.19,11.62-20.35,0-38.27-4.05-53.76-12.16-15.49-8.1-27.51-19.49-36.07-34.17-8.55-14.68-12.83-31.65-12.83-50.92s4.28-36.24,12.83-50.92c8.55-14.68,20.57-26.07,36.07-34.17,15.49-8.1,33.4-12.16,53.76-12.16,17.29,0,32.82,2.93,46.6,8.78,13.78,5.85,24.99,14.18,33.63,24.99,8.65,10.8,14.14,23.41,16.48,37.82h-44.3c-3.24-10.44-9.5-18.68-18.78-24.72-9.28-6.03-20.49-9.05-33.63-9.05-11.71,0-22.06,2.48-31.07,7.43-9.01,4.96-15.99,11.93-20.94,20.93-4.96,9.01-7.43,19.36-7.43,31.07s2.47,22.06,7.43,31.07c4.95,9.01,11.93,15.98,20.94,20.93,9,4.96,19.36,7.43,31.07,7.43,10.81,0,20.35-1.8,28.64-5.4,8.28-3.6,14.68-8.73,19.18-15.4,4.5-6.66,6.75-14.32,6.75-22.96l6.48,8.92h-60.51v-32.42Z"/>
          <path class="cls-1" d="M857.53,237.32c5.49-4.77,8.24-10.94,8.24-18.51s-2.7-13.95-8.1-18.64c-5.4-4.68-12.61-7.02-21.61-7.02h-35.12v151.28h-43.22v-189.1h78.34c14.41,0,27.15,2.52,38.23,7.56,11.08,5.04,19.63,12.16,25.67,21.34,6.03,9.19,9.05,19.81,9.05,31.88,0,9.91-2.43,18.87-7.29,26.88-4.86,8.01-11.26,14.32-19.18,18.91-7.93,4.59-16.39,6.89-25.4,6.89h-2.7l-13.51,10.81h-44.3v-35.12h39.44c8.82,0,15.98-2.39,21.48-7.16ZM930.61,344.44h-51.33l-34.85-56.73c-1.8-3.06-3.96-5.17-6.48-6.35-2.52-1.17-6.04-1.76-10.54-1.76l21.61-21.07c10.44-.36,18.24.59,23.37,2.84,5.13,2.25,9.86,6.8,14.18,13.64l44.03,69.43Z"/>
          <path class="cls-1" d="M1015.61,155.33v189.1h-43.22v-189.1h43.22Z"/>
          <path class="cls-1" d="M1090,155.33h81.05c19.81,0,37.28,3.92,52.41,11.75,15.13,7.83,26.83,18.91,35.12,33.23,8.28,14.32,12.43,30.85,12.43,49.57s-4.14,35.26-12.43,49.57c-8.29,14.32-19.99,25.39-35.12,33.23-15.13,7.83-32.6,11.75-52.41,11.75h-81.05v-189.1ZM1200.76,299.59c8.65-4.68,15.31-11.35,19.99-19.99,4.68-8.65,7.02-18.55,7.02-29.72s-2.34-21.07-7.02-29.72c-4.69-8.65-11.35-15.31-19.99-19.99-8.65-4.68-18.55-7.02-29.72-7.02h-37.82v113.46h37.82c11.16,0,21.07-2.34,29.72-7.02Z"/>
        </g>
      </g>
    </g>
  </g>
</svg>